<svg xmlns="http://www.w3.org/2000/svg" viewBox="0 0 22 19"><g fill="none" fill-rule="evenodd"><path d="M-4-5h29v29H-4zM2 5.987c0 .035 0 .035 0 0"/><path d="M17.616 15.322l.48-.841-.44-.801-2.736.048-1.146-1.638 1.883-.079-.88-1.598 1.973-.188 1.47 2.351.906.03.511-.95-.924-1.414 2.825-.157L22 9.13l-.582-.876-2.998.044.853-1.734-.409-.657-.75.075L16.7 8.565 14.684 8.5l.875-1.72-2.007.013.861-1.651 3.088.083.404-.854-.595-.91-2-.005L16.653.963 16.2 0l-1.022.088-1.456 2.61-.898-1.56-.915.04-.448.832 1.421 2.246-.937 1.69-1.16-1.615-.901 1.681L8.79 4.375l1.337-2.391-.48-.872-.857.175-.848 1.581L6.325.442 5.184.368l-.511.95 1.545 2.417-1.852.07-.47.82.626.844 2.634-.153L8.168 6.91l-1.794.153.982 1.655-1.928.11L3.94 6.49l-.977-.044-.533.994 1.048 1.427-2.927.105L0 9.958l.8.91 2.829-.078-.83 1.59.324.713.888-.083 1.257-2.43 2.163-.062-.884 1.795 2.074-.135-.915 1.751-2.602.04-.533.889.47.74 1.76-.092-1.342 2.592.489.902 1.043-.131 1.35-2.562.929 1.603.888-.084.489-.858-1.413-2.216.907-1.734 1.132 1.708.84-1.611 1.208 1.668-1.32 2.5.41.705.848-.153.795-1.528 1.577 2.303 1.279.07.48-.893-1.449-2.443 1.675-.022zm-6.436-4.033l-1.595-.775-.106-1.458 1.261-.916 1.55.754-.017 1.685-1.093.71z" fill="#FFF" fill-rule="nonzero" stroke="#FFF" stroke-width=".126"/></g></svg>
