<svg xmlns="http://www.w3.org/2000/svg" viewBox="0 0 22 19"><g fill="none" fill-rule="evenodd"><path d="M-3-5h29v29H-3z"/><path d="M7.456 18.698s6.233 1.21 7.784-4.63c0 0-2.548 4.52-6.82 3.062-4.273-1.46-4.548-7.192-.791-10.044 0 0-1.378 3.49 1.411 3.596 0 0 2.24-.25.998-3.063C8.796 4.806 8.28 3.487 11.656 0c0 0-1.724 1.782.655 5.304 2.38 3.521 2.929 4.167 1.792 7.549 0 0 2.24-.817 1.31-3.67-.93-2.848-1.276-3.704.55-4.914 0 0-.998 1.07.93 4.237 1.926 3.168 2.687 12.258-9.437 10.192z" fill="#FFF" fill-rule="nonzero"/></g></svg>
